<mxfile host="app.diagrams.net" modified="2023-07-26T20:53:51.372Z" agent="Mozilla/5.0 (Windows NT 10.0; Win64; x64) AppleWebKit/537.36 (KHTML, like Gecko) Chrome/115.0.0.0 Safari/537.36" version="21.3.2" etag="8TO6uqbF7FnP4VnNddNA" type="github">
  <diagram name="Page-1" id="5SkPmHJrC4bIIunB3XqK">
    <mxGraphModel>
      <root>
        <mxCell id="0" />
        <mxCell id="1" parent="0" />
      </root>
    </mxGraphModel>
  </diagram>
</mxfile>
